<svg width="119" height="110" viewBox="0 0 119 110" fill="none" xmlns="http://www.w3.org/2000/svg">
<path d="M102.94 27.16V31.47" stroke="#BABABA" stroke-linecap="round" stroke-linejoin="round"/>
<path d="M100.79 29.3101H105.09" stroke="#BABABA" stroke-linecap="round" stroke-linejoin="round"/>
<path d="M14.78 10.53V14.83" stroke="#BABABA" stroke-linecap="round" stroke-linejoin="round"/>
<path d="M12.6201 12.6801H16.9301" stroke="#BABABA" stroke-linecap="round" stroke-linejoin="round"/>
<path d="M48.24 2.46C48.7812 2.46 49.22 2.02124 49.22 1.48C49.22 0.93876 48.7812 0.5 48.24 0.5C47.6988 0.5 47.26 0.93876 47.26 1.48C47.26 2.02124 47.6988 2.46 48.24 2.46Z" fill="#CFCFCF"/>
<path d="M79.66 41.42C71.2899 41.42 62.77 41.08 54.7999 38.86C46.9799 36.69 39.7999 32.48 33.3999 27.61C29.2099 24.44 25.3999 21.92 19.9599 22.3C14.6335 22.5916 9.54234 24.5901 5.43995 28C-1.48005 34 -0.440053 45.23 2.32995 53.12C6.48995 65 19.1499 73.23 29.9099 78.61C42.34 84.82 56 88.42 69.6899 90.5C81.6899 92.32 97.1099 93.65 107.51 85.81C117.06 78.61 119.68 62.17 117.34 51.07C116.773 47.7879 115.027 44.8257 112.43 42.74C105.72 37.84 95.7099 41.11 88.1699 41.28C85.3699 41.34 82.52 41.41 79.66 41.42Z" fill="#F2F2F2"/>
<path d="M59.18 109.95C79.4543 109.95 95.89 108.925 95.89 107.66C95.89 106.395 79.4543 105.37 59.18 105.37C38.9056 105.37 22.47 106.395 22.47 107.66C22.47 108.925 38.9056 109.95 59.18 109.95Z" fill="#F2F2F2"/>
<path d="M74.7727 3.82122L25.8974 10.4294C24.3322 10.6411 23.2348 12.0815 23.4464 13.6468L32.9246 83.749C33.1363 85.3143 34.5767 86.4116 36.142 86.2L85.0173 79.5918C86.5826 79.3802 87.68 77.9397 87.4683 76.3744L77.9901 6.27223C77.7785 4.70694 76.338 3.60959 74.7727 3.82122Z" fill="#D2D2D2"/>
<path d="M91.0101 14.11H41.6901C40.1105 14.11 38.8301 15.3905 38.8301 16.97V87.71C38.8301 89.2895 40.1105 90.57 41.6901 90.57H91.0101C92.5896 90.57 93.8701 89.2895 93.8701 87.71V16.97C93.8701 15.3905 92.5896 14.11 91.0101 14.11Z" fill="white" stroke="#BABABA" stroke-linecap="round" stroke-linejoin="round"/>
<path d="M78.1999 69.03H54.4899C53.6007 69.03 52.8799 69.7509 52.8799 70.64V70.65C52.8799 71.5392 53.6007 72.26 54.4899 72.26H78.1999C79.0891 72.26 79.8099 71.5392 79.8099 70.65V70.64C79.8099 69.7509 79.0891 69.03 78.1999 69.03Z" fill="#D2D2D2"/>
<path d="M77.3501 82.23H54.6001C54.3295 82.23 54.1101 82.4494 54.1101 82.72V82.87C54.1101 83.1406 54.3295 83.36 54.6001 83.36H77.3501C77.6207 83.36 77.8401 83.1406 77.8401 82.87V82.72C77.8401 82.4494 77.6207 82.23 77.3501 82.23Z" fill="#D2D2D2"/>
<path d="M83.15 76.9399H49.64C49.281 76.9399 48.99 77.231 48.99 77.5899C48.99 77.9489 49.281 78.2399 49.64 78.2399H83.15C83.509 78.2399 83.8 77.9489 83.8 77.5899C83.8 77.231 83.509 76.9399 83.15 76.9399Z" fill="#D2D2D2"/>
<path d="M89.2801 16.4399H43.4201C42.2824 16.4399 41.3601 17.3622 41.3601 18.4999V58.2699C41.3601 59.4076 42.2824 60.3299 43.4201 60.3299H89.2801C90.4178 60.3299 91.3401 59.4076 91.3401 58.2699V18.4999C91.3401 17.3622 90.4178 16.4399 89.2801 16.4399Z" fill="white" stroke="#BABABA" stroke-linecap="round" stroke-linejoin="round"/>
<path d="M72.47 48C72.7967 47.9922 73.1132 47.8852 73.3776 47.6933C73.642 47.5013 73.8418 47.2334 73.9503 46.9252C74.0588 46.617 74.071 46.283 73.9852 45.9677C73.8994 45.6525 73.7197 45.3707 73.47 45.16C71.3841 43.4323 68.7546 42.4978 66.0463 42.5216C63.3379 42.5454 60.7252 43.526 58.67 45.29C58.4223 45.5 58.2444 45.7803 58.1599 46.0938C58.0754 46.4073 58.0882 46.7391 58.1967 47.0451C58.3053 47.3511 58.5043 47.6169 58.7675 47.8071C59.0306 47.9973 59.3454 48.103 59.67 48.11L72.47 48Z" fill="white" stroke="#BABABA" stroke-linecap="round" stroke-linejoin="round"/>
<path d="M80.6401 37.99L74.8101 34.63L80.6401 31.26" stroke="#BABABA" stroke-width="0.71" stroke-linecap="round" stroke-linejoin="round"/>
<path d="M51.5801 37.99L57.4101 34.63L51.5801 31.26" stroke="#BABABA" stroke-width="0.71" stroke-linecap="round" stroke-linejoin="round"/>
<path d="M19.6101 59.3199V63.6299" stroke="#BABABA" stroke-linecap="round" stroke-linejoin="round"/>
<path d="M17.46 61.47H21.77" stroke="#BABABA" stroke-linecap="round" stroke-linejoin="round"/>
<path d="M101.12 62.37C101.661 62.37 102.1 61.9313 102.1 61.39C102.1 60.8488 101.661 60.41 101.12 60.41C100.579 60.41 100.14 60.8488 100.14 61.39C100.14 61.9313 100.579 62.37 101.12 62.37Z" fill="#CFCFCF"/>
</svg>
