<svg width="118" height="112" viewBox="0 0 118 112" fill="none" xmlns="http://www.w3.org/2000/svg">
<path d="M79.5199 43C71.1399 43 62.6299 42.66 54.6599 40.44C46.8399 38.27 39.6599 34.06 33.2599 29.19C29.0599 26.02 25.2599 23.49 19.8099 23.87C14.4872 24.1651 9.40036 26.1634 5.29993 29.57C-1.63007 35.63 -0.580065 46.84 2.17994 54.72C6.34994 66.59 18.9999 74.84 29.7699 80.21C42.1999 86.42 55.8499 90 69.5499 92.1C81.5499 93.93 96.9599 95.25 107.36 87.42C116.92 80.22 119.54 63.77 117.2 52.67C116.629 49.3898 114.879 46.431 112.28 44.35C105.57 39.44 95.5599 42.72 88.0199 42.88C85.2199 43 82.3799 43 79.5199 43Z" fill="#F2F2F2"/>
<path d="M59.0301 111.56C79.3044 111.56 95.7401 110.535 95.7401 109.27C95.7401 108.005 79.3044 106.98 59.0301 106.98C38.7557 106.98 22.3201 108.005 22.3201 109.27C22.3201 110.535 38.7557 111.56 59.0301 111.56Z" fill="#F2F2F2"/>
<path d="M36.5399 9.24996C36.1885 7.39623 36.5871 5.4788 37.6484 3.9188C38.7096 2.35881 40.3467 1.28382 42.1999 0.929957H42.3699C44.2237 0.578485 46.1411 0.977153 47.7011 2.0384C49.2611 3.09965 50.3361 4.73669 50.6899 6.58996L36.5399 9.24996Z" fill="#D2D2D2"/>
<path d="M20.295 12.3356L66.9304 3.47319C69.1972 3.04241 71.5423 3.52976 73.4498 4.82804C75.3573 6.12631 76.6709 8.12915 77.1017 10.396L13.3821 22.505C12.9516 20.2399 13.4379 17.8966 14.7341 15.9898C16.0303 14.083 18.0304 12.7687 20.295 12.3356Z" fill="white" stroke="#BABABA" stroke-linecap="round" stroke-linejoin="round"/>
<path d="M9.87988 23.16L80.5899 9.72998" stroke="#BABABA" stroke-linecap="round" stroke-linejoin="round"/>
<path d="M106.26 78.76L71.6601 102.7C70.7309 103.334 69.5962 103.594 68.4835 103.427C67.3708 103.261 66.3623 102.679 65.6601 101.8L27.1101 53.23L75.6601 19.64L107.55 72.78C108.133 73.7546 108.324 74.9143 108.085 76.0245C107.845 77.1346 107.193 78.1124 106.26 78.76Z" fill="white" stroke="#BABABA" stroke-linecap="round" stroke-linejoin="round"/>
<path d="M21.51 57.11L81.26 15.76" stroke="#BABABA" stroke-linecap="round" stroke-linejoin="round"/>
<path d="M49.0137 43.8066L49.0056 43.8125C48.2221 44.3784 48.0457 45.4723 48.6116 46.2558L79.738 89.3502C80.3039 90.1337 81.3978 90.3101 82.1813 89.7442L82.1894 89.7384C82.9729 89.1724 83.1493 88.0785 82.5834 87.295L51.457 44.2006C50.8911 43.4171 49.7972 43.2407 49.0137 43.8066Z" fill="#D2D2D2"/>
<path d="M90.7042 83.9614L90.7125 83.9559C91.5147 83.4243 91.7341 82.3431 91.2025 81.5409L61.9645 37.4181C61.433 36.6159 60.3517 36.3965 59.5495 36.9281L59.5412 36.9336C58.739 37.4652 58.5197 38.5464 59.0512 39.3486L88.2892 83.4714C88.8208 84.2736 89.9021 84.493 90.7042 83.9614Z" fill="#D2D2D2"/>
<path d="M68.7538 30.1894L68.7453 30.1947C67.9238 30.7038 67.6706 31.7825 68.1797 32.6041L96.1848 77.7892C96.694 78.6107 97.7727 78.8639 98.5942 78.3548L98.6027 78.3495C99.4242 77.8404 99.6774 76.7616 99.1683 75.9401L71.1632 30.755C70.654 29.9334 69.5753 29.6802 68.7538 30.1894Z" fill="#D2D2D2"/>
<path d="M73.8738 95.4384L73.8817 95.4323C74.6478 94.843 74.7911 93.7442 74.2018 92.9782L41.7885 50.8431C41.1992 50.077 40.1005 49.9337 39.3344 50.523L39.3265 50.5291C38.5604 51.1184 38.4171 52.2172 39.0064 52.9832L71.4197 95.1183C72.009 95.8844 73.1078 96.0277 73.8738 95.4384Z" fill="#D2D2D2"/>
<path d="M87.23 20.8999C87.7712 20.8999 88.21 20.4612 88.21 19.9199C88.21 19.3787 87.7712 18.9399 87.23 18.9399C86.6888 18.9399 86.25 19.3787 86.25 19.9199C86.25 20.4612 86.6888 20.8999 87.23 20.8999Z" fill="#CFCFCF"/>
<path d="M10.5701 15.41C11.1113 15.41 11.5501 14.9712 11.5501 14.43C11.5501 13.8887 11.1113 13.45 10.5701 13.45C10.0288 13.45 9.59009 13.8887 9.59009 14.43C9.59009 14.9712 10.0288 15.41 10.5701 15.41Z" fill="#CFCFCF"/>
<path d="M89.03 98.61C89.5713 98.61 90.01 98.1713 90.01 97.63C90.01 97.0888 89.5713 96.65 89.03 96.65C88.4888 96.65 88.05 97.0888 88.05 97.63C88.05 98.1713 88.4888 98.61 89.03 98.61Z" fill="#CFCFCF"/>
<path d="M47.54 23.97V28.27" stroke="#BABABA" stroke-linecap="round" stroke-linejoin="round"/>
<path d="M45.3899 26.12H49.6999" stroke="#BABABA" stroke-linecap="round" stroke-linejoin="round"/>
<path d="M33.0901 83.41V87.71" stroke="#BABABA" stroke-linecap="round" stroke-linejoin="round"/>
<path d="M30.9299 85.5601H35.2399" stroke="#BABABA" stroke-linecap="round" stroke-linejoin="round"/>
<path d="M93.5801 32.63V36.94" stroke="#BABABA" stroke-linecap="round" stroke-linejoin="round"/>
<path d="M91.4299 34.79H95.7299" stroke="#BABABA" stroke-linecap="round" stroke-linejoin="round"/>
</svg>
